<?xml version="1.0" encoding="utf-8"?>
<!-- Generator: Adobe Illustrator 27.9.0, SVG Export Plug-In . SVG Version: 6.00 Build 0)  -->
<svg version="1.1" id="Слой_1" xmlns="http://www.w3.org/2000/svg" xmlns:xlink="http://www.w3.org/1999/xlink" x="0px" y="0px"
	 viewBox="0 0 800 800" style="enable-background:new 0 0 800 800;" xml:space="preserve">
<style type="text/css">
	.st0{fill:none;}
	.st1{fill:#669DF6;}
</style>
<g id="页面-1">
	<g id="User" transform="translate(-336.000000, -48.000000)">
		<g id="user_add_fill" transform="translate(336.000000, 48.000000)">
			<path id="MingCute" class="st0" d="M800,0v800H0V0H800z M419.8,775.3l-0.4,0.1l-2.4,1.2l-0.6,0.1l0,0l-0.5-0.1l-2.4-1.2
				c-0.3-0.1-0.6,0-0.8,0.2l-0.1,0.4l-0.6,14.2l0.2,0.7l0.4,0.4l3.5,2.5l0.5,0.1l0,0l0.4-0.1l3.5-2.5l0.4-0.5l0,0l0.1-0.6l-0.6-14.2
				C420.3,775.5,420,775.3,419.8,775.3L419.8,775.3z M428.6,771.5l-0.5,0.1l-6.2,3.1l-0.3,0.3l0,0l-0.1,0.4l0.6,14.3l0.2,0.4l0,0
				l0.3,0.2l6.7,3.1c0.4,0.1,0.8,0,0.9-0.3l0.1-0.5l-1.1-20.5C429.2,771.8,428.9,771.6,428.6,771.5L428.6,771.5z M404.8,771.6
				c-0.3-0.2-0.7-0.1-0.9,0.2l-0.2,0.5l-1.1,20.5c0,0.4,0.2,0.7,0.6,0.8l0.5,0l6.7-3.1l0.3-0.3l0,0l0.1-0.4l0.6-14.3l-0.1-0.4l0,0
				l-0.3-0.3L404.8,771.6z"/>
			<path id="形状" class="st1" d="M533.3,466.7c92,0,166.7,74.6,166.7,166.7v33.3c0,36.8-29.8,66.7-66.7,66.7H166.7
				c-36.8,0-66.7-29.8-66.7-66.7v-33.3c0-92,74.6-166.7,166.7-166.7H533.3z M666.7,266.7c18.4,0,33.3,14.9,33.3,33.3v33.3h33.3
				c18.4,0,33.3,14.9,33.3,33.3S751.7,400,733.3,400H700v33.3c0,18.4-14.9,33.3-33.3,33.3s-33.3-14.9-33.3-33.3V400H600
				c-18.4,0-33.3-14.9-33.3-33.3s14.9-33.3,33.3-33.3h33.3V300C633.3,281.6,648.3,266.7,666.7,266.7z M400,66.7
				c92,0,166.7,74.6,166.7,166.7S492,400,400,400c-92,0-166.7-74.6-166.7-166.7S308,66.7,400,66.7z"/>
		</g>
	</g>
</g>
</svg>
