<?xml version="1.0" encoding="utf-8"?>
<!-- Generator: Adobe Illustrator 27.9.0, SVG Export Plug-In . SVG Version: 6.00 Build 0)  -->
<svg version="1.1" id="Слой_1" xmlns="http://www.w3.org/2000/svg" xmlns:xlink="http://www.w3.org/1999/xlink" x="0px" y="0px"
	 viewBox="0 0 52 52" style="enable-background:new 0 0 52 52;" xml:space="preserve">
<style type="text/css">
	.st0{fill-rule:evenodd;clip-rule:evenodd;}
	.st1{display:none;fill:none;}
	.st2{fill:#FF7B00;}
	.st3{fill:#FF8800;}
	.st4{display:none;fill-rule:evenodd;clip-rule:evenodd;}
	.st5{fill:#FF9500;}
</style>
<g id="Page-1">
	<g id="Data">
		<path id="Shape" class="st0" d="M25.8,13.5c-2.6,0-25.4-0.2-25.4-6.5s22.8-6.5,25.4-6.5S51.2,0.7,51.2,7S28.4,13.5,25.8,13.5z
			 M3.5,7c1.2,1.3,9.2,3.5,22.3,3.5S47,8.3,48.1,7c-1.2-1.3-9.2-3.5-22.3-3.5S4.6,5.6,3.5,7z"/>
		<rect id="Rectangle-path" x="48.2" y="7" class="st0" width="3" height="37.4"/>
		
			<rect id="Rectangle-path_00000081645199434691798140000012084696107272545205_" x="0.4" y="7" class="st0" width="3" height="37.4"/>
		<path id="Shape_00000005973561255317389490000002999457247686465423_" class="st0" d="M25.8,26.6c-6,0-25.4-0.5-25.4-7.3h3
			c0,1.8,8.5,4.3,22.4,4.3s22.4-2.5,22.4-4.3h3C51.2,26.1,31.7,26.6,25.8,26.6z"/>
		<path id="Shape_00000165943195363768945080000017907071960133151409_" class="st0" d="M25.8,39.1c-6,0-25.4-0.5-25.4-7.3h3
			c0,1.8,8.5,4.3,22.4,4.3s22.4-2.5,22.4-4.3h3C51.2,38.5,31.7,39.1,25.8,39.1z"/>
		<path id="Shape_00000136402886957096321170000014862985852929247616_" class="st0" d="M25.8,51.5c-6,0-25.4-0.5-25.4-7.3h3
			c0,1.8,8.5,4.3,22.4,4.3s22.4-2.5,22.4-4.3h3C51.2,50.9,31.8,51.5,25.8,51.5z"/>
	</g>
</g>
<line class="st1" x1="3.3" y1="35.9" x2="7.7" y2="37.7"/>
<path id="Контур_низ_1" class="st2" d="M3.4,35.7l0,8.5c0,0.1,0,0.2,0.1,0.3c0,0.1,0.1,0.1,0.2,0.2
	c0.1,0.1,0.2,0.2,0.3,0.2c0.1,0.1,0.2,0.2,0.3,0.2c0.3,0.2,0.5,0.3,0.7,0.4c0.5,0.3,1,0.4,1.4,0.5c0.6,0.2,1.2,0.4,1.8,0.5
	c0.6,0.2,1.1,0.3,1.7,0.4c0.4,0.1,0.9,0.2,1.3,0.3c0.2,0,1.3,0.2,2.7,0.4c0.2,0,0.9,0.1,1.9,0.2c0.8,0.1,1.5,0.1,2,0.2
	c0.6,0,1.2,0.1,1.9,0.1c0.8,0,1.6,0.1,2.4,0.1c1.3,0,2.5,0,3.8,0.1l3.1,0l3.4-0.2c0.6,0,1.1-0.1,1.4-0.1c0.3,0,0.6,0,0.7-0.1
	c0.4,0,0.5,0,0.7-0.1c0.1,0,0.1,0,0.3,0c0.2,0,0.4,0,0.4,0c0.2,0,0.1,0,0.5-0.1c0.2,0,0.4,0,0.6-0.1c0.1,0,0.1,0,0.2,0
	c0.2,0,0.4-0.1,0.5-0.1c0.1,0,0.3,0,0.6-0.1c0.6-0.1,1.3-0.2,1.9-0.3l2.3-0.4c0.3-0.1,0.6-0.1,0.9-0.2c0.4-0.1,0.7-0.2,1.1-0.3
	c0.2-0.1,0.5-0.1,0.7-0.2c0.4-0.1,0.8-0.3,1.1-0.4c0.2-0.1,0.5-0.2,0.7-0.3c0.3-0.2,0.6-0.3,0.8-0.5c0.1-0.1,0.2-0.2,0.3-0.3
	c0.1-0.2,0.2-0.3,0.2-0.4c0-1,0-2,0-3c0-1.9,0-3.8,0-5.6c-0.5,0.2-0.9,0.4-1.4,0.6c-0.8,0.3-1.7,0.6-2.5,0.8
	c-0.6,0.1-1.3,0.3-1.9,0.4c-1,0.2-2,0.4-3.1,0.6c-0.3,0-0.6,0.1-0.9,0.1c-0.4,0.1-1.5,0.2-3.7,0.4c-0.8,0.1-1.4,0.1-1.6,0.1
	c-1.6,0.1-3.9,0.2-6.6,0.3c-1.4,0-2.5,0-4.1-0.1C20.6,39,19,39,17,38.8c-1.7-0.2-3.3-0.4-5-0.6c-0.9-0.2-1.7-0.3-2.6-0.5
	c-1.2-0.2-2.2-0.6-2.9-0.8"/>
<path id="Контур_низ_3" class="st3" d="M3.4,23.3l0,8.5c0,0.1,0,0.2,0.1,0.3c0.1,0.1,0.1,0.2,0.2,0.2
	c0.2,0.2,0.4,0.3,0.6,0.5c0.2,0.1,0.4,0.3,0.7,0.4c0.5,0.3,1,0.4,1.4,0.5c0.6,0.2,1.2,0.4,1.8,0.5c0.6,0.2,1.1,0.3,1.7,0.4
	c0.4,0.1,0.9,0.2,1.3,0.3c0.7,0.1,1.5,0.3,2.7,0.4c1,0.1,2.3,0.3,3.9,0.4c1.4,0.1,2.9,0.2,4.3,0.2c1.3,0,2.5,0,3.8,0.1
	c1,0,2.1-0.1,3.1-0.1c1.1-0.1,2.3-0.1,3.4-0.2c0.6,0,1.1-0.1,1.4-0.1c0.3,0,0.6,0,0.7-0.1c0.4,0,0.5,0,0.7-0.1c0.1,0,0.1,0,0.3,0
	c0.2,0,0.4,0,0.4,0c0.2,0,0.1,0,0.5-0.1c0.2,0,0.4,0,0.6-0.1c0.1,0,0.1,0,0.2,0c0.2,0,0.4-0.1,0.5-0.1c0.2,0,0.2,0,0.6-0.1
	c0.3,0,0.9-0.1,1.9-0.3c0.7-0.1,1.5-0.3,2.2-0.4c0.1,0,0.1,0,0.2-0.1c0.1,0,0.3-0.1,0.6-0.2c0.3-0.1,0.7-0.2,1.1-0.3
	c0.2-0.1,0.4-0.1,0.7-0.2c0.5-0.2,0.8-0.3,1.1-0.4c0.4-0.1,0.6-0.3,0.8-0.3c0.2-0.1,0.5-0.3,0.8-0.5c0.2-0.1,0.3-0.2,0.3-0.3
	c0.1-0.2,0.2-0.3,0.2-0.4c0-0.1,0-0.1,0-0.2c0,0,0,0,0,0c0,0,0-0.1,0-0.2c0-0.3,0-0.7,0-0.7c0-0.7,0-1.9,0-1.9c0-1.9,0-3.8,0-5.6
	c-0.5,0.2-0.9,0.4-1.4,0.6c-0.6,0.2-1.5,0.5-2.5,0.8c-0.8,0.2-1.4,0.4-1.9,0.5c-1.3,0.3-2.4,0.4-3,0.5c-0.4,0.1-0.7,0.1-1,0.1
	c-1.7,0.2-3,0.3-3.6,0.4c-0.6,0-1,0.1-1.6,0.1c-1.4,0.1-2.6,0.1-3.6,0.2c-0.5,0-1.1,0-1.6,0c-0.3,0-0.5,0-0.8,0c-0.2,0-0.3,0-0.5,0
	c-0.1,0-0.2,0-0.3,0c-0.6,0-1.2,0-1.9,0c-0.6,0-1.3,0-2,0c-0.7,0-1.4,0-2.2-0.1c-1.4-0.1-2.5-0.1-3.4-0.2c-1.2-0.1-2.9-0.2-5-0.6
	c-0.7-0.1-1.5-0.2-2.6-0.5c-1.2-0.2-2.2-0.5-2.9-0.7"/>
<path class="st4" d="M48.2,31.6"/>
<path id="Контур_низ_4" class="st5" d="M3.4,10.4c0,3,0,5.9,0,8.9c0,0.1,0,0.2,0.1,0.3c0,0.1,0.1,0.2,0.3,0.3
	c0.2,0.2,0.3,0.3,0.6,0.5c0.3,0.2,0.5,0.3,0.6,0.3c1.2,0.5,1,0.4,1.5,0.6c0.7,0.2,1.2,0.4,1.8,0.5C9,22,9.6,22.2,10,22.2
	c0.3,0.1,0.6,0.1,0.7,0.1c0.3,0.1,0.8,0.2,1.5,0.3c0.3,0,0.8,0.1,1.5,0.2c2.1,0.3,4,0.4,4,0.4c1.9,0.2,3.4,0.2,4.3,0.2
	c0.5,0,1.9,0.1,3.8,0.1c1.5,0,2.6,0,3.1,0c0,0,1.7,0,3.3-0.1c0.6,0,1.3-0.1,1.5-0.1c0.1,0,0.2,0,0.2,0c0.2,0,0.4,0,0.5,0
	c0.2,0,0.4,0,0.6-0.1c0.1,0,0.2,0,0.3,0c0,0,0.2,0,0.3,0c0.1,0,0.1,0,0.1,0c0.1,0,0.1,0,0.1,0c0,0,0.1,0,0.1,0c0,0,0.1,0,0.1,0
	c0.1,0,0.2,0,0.2,0c0,0,0.2,0,0.5-0.1c0,0,0,0,0.1,0c0,0,0,0,0.1,0c0,0,0,0,0.1,0c0.3,0,0.5-0.1,0.5-0.1c0.1,0,0.1,0,0.1,0
	c0,0,0.3,0,0.5-0.1c1-0.1,1.9-0.3,1.9-0.3s1.2-0.2,2.2-0.4c0.1,0,0.1,0,0.2-0.1c0.1,0,0.3-0.1,0.6-0.2c0.3-0.1,0.7-0.2,1.1-0.3
	c0.2-0.1,0.4-0.1,0.7-0.2c0.5-0.2,0.8-0.3,1.1-0.4c0.4-0.1,0.6-0.3,0.8-0.3c0.2-0.1,0.5-0.3,0.8-0.5c0.2-0.1,0.3-0.2,0.3-0.3
	c0.1-0.2,0.2-0.3,0.2-0.4c0-0.1,0-0.1,0-0.2c0,0,0,0,0,0c0,0,0-0.1,0-0.2c0-0.3,0-0.7,0-0.7c0-0.7,0-1.9,0-1.9c0,0,0,0,0,0
	c0-0.9,0-2.8,0-6c-0.3,0.1-0.6,0.3-0.9,0.4c-0.3,0.1-0.6,0.2-0.9,0.3c-0.5,0.2-1,0.3-1.5,0.4c-0.3,0.1-0.6,0.2-1,0.3
	c-0.4,0.1-1,0.2-2.1,0.4c-0.3,0.1-1.5,0.3-3.3,0.5c-1.1,0.1-1.9,0.2-2.4,0.3c-0.2,0-0.9,0.1-1.8,0.2c-0.2,0-0.6,0.1-1.3,0.1
	c-0.3,0-1.3,0.1-2.6,0.1c-0.5,0-0.9,0-1.1,0c-0.4,0-0.6,0-0.8,0c-0.2,0-0.3,0-0.3,0c-0.3,0-0.6,0-0.7,0c-0.2,0-0.4,0-0.5,0
	c0,0-0.3,0-0.5,0c-0.8,0-1.7,0-1.7,0c-0.9,0-1.3,0-1.8,0c-0.7,0-2.3-0.1-2.8-0.1c0,0-0.1,0-0.3,0c-0.1,0-0.3,0-0.5,0
	c-0.3,0-0.5,0-0.7-0.1c-0.5,0-1.1-0.1-1.9-0.1c-1.3-0.1-2.9-0.2-5-0.5c-1.3-0.2-2.1-0.3-2.5-0.4C8.9,12.1,8.4,12,8,11.9
	c-0.4-0.1-0.9-0.2-1.4-0.3c-0.2,0-0.3-0.1-0.5-0.1c-0.4-0.1-0.9-0.3-1.5-0.5"/>
<path class="st5" d="M3.5,7C3.6,6.9,3.8,6.7,4,6.6c0.3-0.2,0.5-0.3,0.7-0.4C5.3,6,6,5.7,6.8,5.5C7.4,5.3,8,5.2,8.5,5.1
	c0.7-0.1,1.4-0.3,2.1-0.4c0.8-0.1,1.5-0.3,2.2-0.3c1.2-0.2,2.5-0.4,3.9-0.5c1.7-0.1,3.2-0.2,4.7-0.2c3.2-0.2,5.5-0.1,6.9-0.1
	c1,0,2.5,0.1,2.6,0.1c1.4,0.1,2.3,0.1,3.4,0.2c0,0,0.4,0,3,0.3l0,0c0.7,0.1,1.5,0.2,2.3,0.3c0.8,0.1,1.6,0.3,2.4,0.4
	c0.5,0.1,1.1,0.2,1.7,0.4c0.7,0.2,1.3,0.4,1.9,0.5c0.4,0.1,0.8,0.2,1.2,0.4c0.5,0.2,1,0.5,1.3,0.7c-0.2,0.1-0.5,0.3-0.8,0.5
	c-0.2,0.1-0.4,0.2-0.6,0.3C46.4,8,45.8,8.2,45,8.4c-0.9,0.3-1.8,0.5-2.8,0.7c-0.9,0.2-1.8,0.3-2.5,0.4c-1.3,0.2-2.5,0.3-3.8,0.5
	l-5.5,0.4c-2.1,0-4.2,0.1-6.3,0.1c-1.7-0.1-3.3-0.1-5-0.2c-0.9,0-1.8-0.1-2.8-0.2c-0.9-0.1-1.8-0.2-2.7-0.3
	c-1.2-0.2-2.3-0.4-3.5-0.6C9.4,9.1,8.6,8.9,7.8,8.7C7.3,8.6,6.9,8.5,6.5,8.4C6,8.2,5.4,8,4.8,7.8C4.6,7.7,4.3,7.6,3.9,7.3
	C3.7,7.2,3.6,7.1,3.5,7z"/>
</svg>
