<?xml version="1.0" encoding="utf-8"?>
<!-- Generator: Adobe Illustrator 27.9.0, SVG Export Plug-In . SVG Version: 6.00 Build 0)  -->
<svg version="1.1" id="Слой_1" xmlns="http://www.w3.org/2000/svg" xmlns:xlink="http://www.w3.org/1999/xlink" x="0px" y="0px"
	 viewBox="0 0 800 800" style="enable-background:new 0 0 800 800;" xml:space="preserve">
<style type="text/css">
	.st0{fill-rule:evenodd;clip-rule:evenodd;fill:#FF0000;}
</style>
<g id="Page-1">
	<g id="add" transform="translate(42.666667, 42.666667)">
		<path id="error" class="st0" d="M357.3,24c184.1,0,333.3,149.3,333.3,333.3S541.4,690.7,357.3,690.7S24,541.4,24,357.3
			S173.3,24,357.3,24z M357.3,90.7c-147,0-266.7,119.6-266.7,266.7S210.3,624,357.3,624S624,504.4,624,357.3S504.4,90.7,357.3,90.7z
			 M433.8,233.8l47.1,47.1l-76.4,76.4l76.4,76.4l-47.1,47.1l-76.4-76.4l-76.4,76.4l-47.1-47.1l76.4-76.4l-76.4-76.4l47.1-47.1
			l76.4,76.4L433.8,233.8z"/>
	</g>
</g>
</svg>
