<?xml version="1.0" encoding="utf-8"?>
<!-- Generator: Adobe Illustrator 27.9.0, SVG Export Plug-In . SVG Version: 6.00 Build 0)  -->
<svg version="1.1" id="svg" xmlns="http://www.w3.org/2000/svg" xmlns:xlink="http://www.w3.org/1999/xlink" x="0px" y="0px"
	 viewBox="0 0 731 731" style="enable-background:new 0 0 731 731;" xml:space="preserve">
<style type="text/css">
	.st0{fill:#669DF6;}
</style>
<g id="IconSvg_bgCarrier">
</g>
<g id="IconSvg_tracerCarrier">
	<path class="st0" d="M365.5,731C163.6,731,0,567.4,0,365.5S163.6,0,365.5,0C567.4,0,731,163.6,731,365.5
		C731,567.4,567.4,731,365.5,731z M201.5,484.8c0,5.8,4.6,10.5,10.5,10.5h306.8c5.8,0,10.5-4.7,10.5-10.5c0-5.8-4.6-10.5-10.5-10.5
		H212.1C206.3,474.3,201.5,478.9,201.5,484.8L201.5,484.8z M201.5,365.5c0,5.8,4.6,10.5,10.5,10.5h306.8c5.8,0,10.5-4.7,10.5-10.5
		c0-5.8-4.6-10.5-10.5-10.5H212.1C206.3,355,201.5,359.7,201.5,365.5L201.5,365.5z M201.5,246.2c0,5.8,4.6,10.5,10.5,10.5h306.8
		c5.8,0,10.5-4.7,10.5-10.5c0-5.8-4.6-10.5-10.5-10.5H212.1C206.3,235.7,201.5,240.4,201.5,246.2L201.5,246.2z"/>
</g>
</svg>
