<svg id="svg" fill="#000000" stroke="#000000" width="200px" height="200px" version="1.1" viewBox="144 144 512 512" xmlns="http://www.w3.org/2000/svg">
    <g id="IconSvg_bgCarrier" stroke-width="0"></g>
    <g id="IconSvg_tracerCarrier" stroke-linecap="round" stroke-linejoin="round" stroke="#CCCCCC"></g>
     <g id="IconSvg_iconCarrier">
      <path xmlns="http://www.w3.org/2000/svg" d="m203.51 601.52h392.97c2.7852 0 5.0391-2.2539 5.0391-5.0391 0-2.7812-2.2539-5.0391-5.0391-5.0391h-13.289v-387.93c0-2.7812-2.2539-5.0391-5.0391-5.0391l-92.992 0.003906c-2.7852 0-5.0391 2.2539-5.0391 5.0391v387.93h-28.59v-305.49c0-2.7812-2.2539-5.0391-5.0391-5.0391h-92.996c-2.7852 0-5.0391 2.2539-5.0391 5.0391v305.49h-28.59v-387.93c0-2.7812-2.2539-5.0391-5.0391-5.0391l-92.992 0.003906c-2.7852 0-5.0391 2.2539-5.0391 5.0391v387.93l-13.289-0.003907c-2.7852 0-5.0391 2.2539-5.0391 5.0391 0.003906 2.7812 2.2539 5.0391 5.0391 5.0391zm286.69-392.97h82.918v382.89h-82.918zm-131.66 82.445h82.922v300.45h-82.922zm-131.66-82.445h82.918v382.89h-82.918z"></path>

      </g>
      </svg>