<svg id="svg" fill="#000000" stroke="#000000" width="200px" height="200px" version="1.1" viewBox="144 144 512 512" xmlns="http://www.w3.org/2000/svg">
    <g id="IconSvg_bgCarrier" stroke-width="0"></g>
    <g id="IconSvg_tracerCarrier" stroke-linecap="round" stroke-linejoin="round" stroke="#CCCCCC"></g>
     <g id="IconSvg_iconCarrier">
      <g xmlns="http://www.w3.org/2000/svg">
  <path d="m559.4 314.93-1.0977-2.1562c-11.355-22.273-27.945-42.492-47.977-58.477l-1.9258-1.5391 15.895-70.117c-11.18-6.6172-22.902-12.348-34.922-17.07l-44.293 55.918-2.4609-0.61328c-7.543-1.8828-14.395-3.2031-20.949-4.0234-18.766-2.332-37.875-1.6055-56.789 2.1719l-2.3516 0.47266-45.164-56.449-33.672 15.051 15.879 68.48-2.168 1.5273c-23.906 16.824-43.441 39.453-56.512 65.43l-1.0859 2.1641-72.133 0.10547-8.3828 32.34 63.332 30.25-0.1875 2.6758c-2.2812 32.562 4.2617 64.871 18.91 93.418l1.1602 2.2617-44.141 55.52 19.312 24.508 63.363-30.77 1.9609 1.7109c24.812 21.594 55.383 35.812 88.406 41.121l2.6172 0.41797 15.75 68.516 31.977-0.74609 15.703-69.918 2.4102-0.55469c30.211-7.0156 58.148-21.809 80.793-42.777l1.9609-1.8164 63.121 30.266 20.855-28.309-45.195-56.32 0.97266-2.1875c7.0625-15.992 11.734-32.82 13.887-50.035 1.1602-9.4688 1.4844-19.371 0.99609-30.281l-0.11719-2.5859 63.582-30.738-9.4297-37.07zm-159.4 234.15c-82.211 0-149.09-66.871-149.09-149.06 0-82.211 66.887-149.09 149.09-149.09 82.203 0 149.08 66.887 149.08 149.09 0 82.191-66.871 149.06-149.08 149.06z"></path>
  <path d="m400 258.79c-77.871 0-141.22 63.352-141.22 141.22 0 77.852 63.352 141.19 141.22 141.19 77.863 0 141.21-63.336 141.21-141.19 0-77.871-63.344-141.22-141.21-141.22zm85.285 216.73h-170.58v-66.934c0-19.109 38.414-28.789 53.352-31.836-8.0977-8.1484-13.109-19.359-13.109-31.73 0-24.832 20.203-45.043 45.039-45.043 24.832 0 45.039 20.211 45.039 45.043 0 12.363-5.0117 23.578-13.105 31.73 14.914 3.0352 53.367 12.723 53.367 31.836z"></path>
  <path d="m381.78 386.19 18.207 35.625 18.238-35.641c-5.5781 2.4883-11.738 3.8945-18.238 3.8945-6.4844 0-12.633-1.4023-18.207-3.8789z"></path>
  <path d="m399.98 382.2c20.492 0 37.168-16.68 37.168-37.172 0-20.492-16.672-37.172-37.168-37.172-20.492 0-37.168 16.68-37.168 37.172 0.003906 20.492 16.676 37.172 37.168 37.172z"></path>
  <path d="m428.17 384.03-28.18 55.078-28.148-55.078c-21.355 4.0039-49.258 13.785-49.258 24.566v59.062h154.84l-0.003907-59.062c0-10.777-27.895-20.562-49.246-24.566z"></path>
 </g>

      </g>
      </svg>