<svg id="svg" fill="#000000" stroke="#000000" width="200px" height="200px" version="1.1" viewBox="144 144 512 512" xmlns="http://www.w3.org/2000/svg">
    <g id="IconSvg_bgCarrier" stroke-width="0"></g>
    <g id="IconSvg_tracerCarrier" stroke-linecap="round" stroke-linejoin="round" stroke="#CCCCCC"></g>
     <g id="IconSvg_iconCarrier">
      <path xmlns="http://www.w3.org/2000/svg" d="m400 188.4c-42.371 0-80.707 7.918-108.95 21.098-28.242 13.18-47.23 32.078-47.23 54.473v272.06c0 22.395 18.992 41.137 47.23 54.316 28.242 13.18 66.578 21.254 108.95 21.254s80.707-8.0742 108.95-21.254c28.242-13.18 47.23-31.922 47.23-54.316v-272.06c0-22.395-18.992-41.297-47.23-54.473-28.242-13.18-66.578-21.098-108.95-21.098zm0 10.078c41.102 0 78.238 7.8047 104.7 20.152 26.461 12.348 41.406 28.781 41.406 45.344 0 16.559-14.945 32.836-41.406 45.188-26.461 12.348-63.598 20.309-104.7 20.309s-78.234-7.9609-104.7-20.309c-26.461-12.355-41.406-28.629-41.406-45.191 0-16.559 14.945-32.992 41.406-45.344 26.461-12.348 63.598-20.152 104.7-20.152zm-146.11 92.574c8.2969 10.594 21.27 19.824 37.156 27.238 28.242 13.18 66.578 21.254 108.95 21.254s80.707-8.0742 108.95-21.254c15.887-7.4141 28.859-16.645 37.156-27.238v63.605c0 16.559-14.945 32.836-41.406 45.188-26.461 12.348-63.598 20.309-104.7 20.309s-78.234-7.9609-104.7-20.309c-26.461-12.352-41.406-28.629-41.406-45.188zm0 90.688c8.3125 10.59 21.285 19.832 37.156 27.238 28.242 13.18 66.578 21.254 108.95 21.254s80.707-8.0742 108.95-21.254c15.871-7.4062 28.844-16.648 37.156-27.238v63.605c0 16.559-14.945 32.836-41.406 45.188-26.461 12.348-63.598 20.309-104.7 20.309s-78.234-7.9609-104.7-20.309c-26.461-12.352-41.406-28.629-41.406-45.191v-63.605zm0 90.688c8.3125 10.59 21.285 19.832 37.156 27.238 28.242 13.18 66.578 21.254 108.95 21.254s80.707-8.0742 108.95-21.254c15.871-7.4062 28.844-16.648 37.156-27.238v63.605c0 16.559-14.945 32.836-41.406 45.188-26.461 12.348-63.598 20.309-104.7 20.309s-78.234-7.9609-104.7-20.309c-26.461-12.355-41.406-28.633-41.406-45.191v-63.605z"></path>

      </g>
      </svg>