<svg id="svg" fill="#000000" stroke="#000000" width="200px" height="200px" version="1.1" viewBox="144 144 512 512" xmlns="http://www.w3.org/2000/svg">
    <g id="IconSvg_bgCarrier" stroke-width="0"></g>
    <g id="IconSvg_tracerCarrier" stroke-linecap="round" stroke-linejoin="round" stroke="#CCCCCC"></g>
     <g id="IconSvg_iconCarrier">
      <path xmlns="http://www.w3.org/2000/svg" d="m375.84 177.11-198.26 209.69c-9.0586 11.367 0.078124 23.883 14.051 23.883h41.465v188.56c0 17.473 14.383 31.855 31.855 31.855h73.105c5.7969 0 10.496-4.6992 10.496-10.496v-125.95c0-6.207 4.6602-10.863 10.863-10.863h83.211c6.207 0 10.887 4.6602 10.887 10.863v125.95c0 5.7969 4.6992 10.496 10.496 10.496h74.23c17.473 0 31.879-14.383 31.879-31.855l-0.003906-188.56h38.09c20.031 0 22.168-21.953 11.438-32.348-60.676-62.305-130.54-133.7-194.41-199.05-10.848-12.855-39.211-14.023-49.395-2.1719zm225.64 212.58h-41.859c-5.7969 0-10.496 4.6992-10.496 10.496l-0.003906 199.06c0 6.2031-4.6797 10.863-10.883 10.863h-63.738v-115.46c0-17.473-14.406-31.855-31.879-31.855h-83.211c-17.469 0-31.852 14.383-31.852 31.855v115.46h-62.605c-6.2109 0-10.867-4.6602-10.867-10.863v-199.06c0-5.7969-4.6992-10.496-10.496-10.496h-41.512l186.84-196.16c5.3633-5.8672 15.109-6.8945 22.004-0.25781 57.133 60.273 128.62 132.74 190.56 196.42z"></path>

      </g>
      </svg>