<svg id="svg" fill="#669df6" stroke="#669df6" width="200" height="200" version="1.1" viewBox="144 144 512 512" xmlns="http://www.w3.org/2000/svg">
    <g id="IconSvg_bgCarrier" stroke-width="0"></g>
    <g id="IconSvg_tracerCarrier" stroke-linecap="round" stroke-linejoin="round" stroke="#CCCCCC" stroke-width="0">
      <path xmlns="http://www.w3.org/2000/svg" d="m585.15 173.29h-370.3c-22.168 0-40.305 18.137-40.305 40.305v370.3c0 22.168 18.137 40.305 40.305 40.305h370.3c22.168 0 40.305-18.137 40.305-40.305v-370.3c0-22.168-18.137-40.305-40.305-40.305zm-44.582 347.12h-281.14v-49.496h281.14v49.496zm0-96.926h-281.14v-49.496h281.14v49.496zm0-96.922h-281.14v-49.492h281.14v49.492z"></path>

      </g>
     <g id="IconSvg_iconCarrier">
      <path xmlns="http://www.w3.org/2000/svg" d="m585.15 173.29h-370.3c-22.168 0-40.305 18.137-40.305 40.305v370.3c0 22.168 18.137 40.305 40.305 40.305h370.3c22.168 0 40.305-18.137 40.305-40.305v-370.3c0-22.168-18.137-40.305-40.305-40.305zm-44.582 347.12h-281.14v-49.496h281.14v49.496zm0-96.926h-281.14v-49.496h281.14v49.496zm0-96.922h-281.14v-49.492h281.14v49.492z"></path>

      </g>
      </svg>